<?xml version="1.0" encoding="utf-8" standalone="no"?>
<!DOCTYPE svg PUBLIC "-//W3C//DTD SVG 1.1//EN"
  "http://www.w3.org/Graphics/SVG/1.1/DTD/svg11.dtd">
<svg xmlns:xlink="http://www.w3.org/1999/xlink" width="864pt" height="576pt" viewBox="0 0 864 576" xmlns="http://www.w3.org/2000/svg" version="1.1">
 <metadata>
  <rdf:RDF xmlns:dc="http://purl.org/dc/elements/1.1/" xmlns:cc="http://creativecommons.org/ns#" xmlns:rdf="http://www.w3.org/1999/02/22-rdf-syntax-ns#">
   <cc:Work>
    <dc:type rdf:resource="http://purl.org/dc/dcmitype/StillImage"/>
    <dc:date>2024-02-01T20:56:31.990175</dc:date>
    <dc:format>image/svg+xml</dc:format>
    <dc:creator>
     <cc:Agent>
      <dc:title>Matplotlib v3.7.2, https://matplotlib.org/</dc:title>
     </cc:Agent>
    </dc:creator>
   </cc:Work>
  </rdf:RDF>
 </metadata>
 <defs>
  <style type="text/css">*{stroke-linejoin: round; stroke-linecap: butt}</style>
 </defs>
 <g id="figure_1">
  <g id="patch_1">
   <path d="M 0 576 
L 864 576 
L 864 0 
L 0 0 
z
" style="fill: #ffffff"/>
  </g>
  <g id="axes_1">
   <g id="patch_2">
    <path d="M 75.24 234.00181 
L 407.153893 234.00181 
L 407.153893 36.34125 
L 75.24 36.34125 
z
" style="fill: #ffffff"/>
   </g>
   <g id="matplotlib.axis_1">
    <g id="xtick_1">
     <g id="text_1">
      <!-- people -->
      <g style="fill: #262626" transform="translate(72.602912 281.683641) rotate(-30) scale(0.18 -0.18)">
       <defs>
        <path id="ArialMT-70" d="M 422 -1272 
L 422 3319 
L 934 3319 
L 934 2888 
Q 1116 3141 1344 3267 
Q 1572 3394 1897 3394 
Q 2322 3394 2647 3175 
Q 2972 2956 3137 2557 
Q 3303 2159 3303 1684 
Q 3303 1175 3120 767 
Q 2938 359 2589 142 
Q 2241 -75 1856 -75 
Q 1575 -75 1351 44 
Q 1128 163 984 344 
L 984 -1272 
L 422 -1272 
z
M 931 1641 
Q 931 1000 1190 694 
Q 1450 388 1819 388 
Q 2194 388 2461 705 
Q 2728 1022 2728 1688 
Q 2728 2322 2467 2637 
Q 2206 2953 1844 2953 
Q 1484 2953 1207 2617 
Q 931 2281 931 1641 
z
" transform="scale(0.015625)"/>
        <path id="ArialMT-65" d="M 2694 1069 
L 3275 997 
Q 3138 488 2766 206 
Q 2394 -75 1816 -75 
Q 1088 -75 661 373 
Q 234 822 234 1631 
Q 234 2469 665 2931 
Q 1097 3394 1784 3394 
Q 2450 3394 2872 2941 
Q 3294 2488 3294 1666 
Q 3294 1616 3291 1516 
L 816 1516 
Q 847 969 1125 678 
Q 1403 388 1819 388 
Q 2128 388 2347 550 
Q 2566 713 2694 1069 
z
M 847 1978 
L 2700 1978 
Q 2663 2397 2488 2606 
Q 2219 2931 1791 2931 
Q 1403 2931 1139 2672 
Q 875 2413 847 1978 
z
" transform="scale(0.015625)"/>
        <path id="ArialMT-6f" d="M 213 1659 
Q 213 2581 725 3025 
Q 1153 3394 1769 3394 
Q 2453 3394 2887 2945 
Q 3322 2497 3322 1706 
Q 3322 1066 3130 698 
Q 2938 331 2570 128 
Q 2203 -75 1769 -75 
Q 1072 -75 642 372 
Q 213 819 213 1659 
z
M 791 1659 
Q 791 1022 1069 705 
Q 1347 388 1769 388 
Q 2188 388 2466 706 
Q 2744 1025 2744 1678 
Q 2744 2294 2464 2611 
Q 2184 2928 1769 2928 
Q 1347 2928 1069 2612 
Q 791 2297 791 1659 
z
" transform="scale(0.015625)"/>
        <path id="ArialMT-6c" d="M 409 0 
L 409 4581 
L 972 4581 
L 972 0 
L 409 0 
z
" transform="scale(0.015625)"/>
       </defs>
       <use xlink:href="#ArialMT-70"/>
       <use xlink:href="#ArialMT-65" x="55.615234"/>
       <use xlink:href="#ArialMT-6f" x="111.230469"/>
       <use xlink:href="#ArialMT-70" x="166.845703"/>
       <use xlink:href="#ArialMT-6c" x="222.460938"/>
       <use xlink:href="#ArialMT-65" x="244.677734"/>
      </g>
     </g>
    </g>
    <g id="xtick_2">
     <g id="text_2">
      <!-- buildings -->
      <g style="fill: #262626" transform="translate(102.068825 290.183016) rotate(-30) scale(0.18 -0.18)">
       <defs>
        <path id="ArialMT-62" d="M 941 0 
L 419 0 
L 419 4581 
L 981 4581 
L 981 2947 
Q 1338 3394 1891 3394 
Q 2197 3394 2470 3270 
Q 2744 3147 2920 2923 
Q 3097 2700 3197 2384 
Q 3297 2069 3297 1709 
Q 3297 856 2875 390 
Q 2453 -75 1863 -75 
Q 1275 -75 941 416 
L 941 0 
z
M 934 1684 
Q 934 1088 1097 822 
Q 1363 388 1816 388 
Q 2184 388 2453 708 
Q 2722 1028 2722 1663 
Q 2722 2313 2464 2622 
Q 2206 2931 1841 2931 
Q 1472 2931 1203 2611 
Q 934 2291 934 1684 
z
" transform="scale(0.015625)"/>
        <path id="ArialMT-75" d="M 2597 0 
L 2597 488 
Q 2209 -75 1544 -75 
Q 1250 -75 995 37 
Q 741 150 617 320 
Q 494 491 444 738 
Q 409 903 409 1263 
L 409 3319 
L 972 3319 
L 972 1478 
Q 972 1038 1006 884 
Q 1059 663 1231 536 
Q 1403 409 1656 409 
Q 1909 409 2131 539 
Q 2353 669 2445 892 
Q 2538 1116 2538 1541 
L 2538 3319 
L 3100 3319 
L 3100 0 
L 2597 0 
z
" transform="scale(0.015625)"/>
        <path id="ArialMT-69" d="M 425 3934 
L 425 4581 
L 988 4581 
L 988 3934 
L 425 3934 
z
M 425 0 
L 425 3319 
L 988 3319 
L 988 0 
L 425 0 
z
" transform="scale(0.015625)"/>
        <path id="ArialMT-64" d="M 2575 0 
L 2575 419 
Q 2259 -75 1647 -75 
Q 1250 -75 917 144 
Q 584 363 401 755 
Q 219 1147 219 1656 
Q 219 2153 384 2558 
Q 550 2963 881 3178 
Q 1213 3394 1622 3394 
Q 1922 3394 2156 3267 
Q 2391 3141 2538 2938 
L 2538 4581 
L 3097 4581 
L 3097 0 
L 2575 0 
z
M 797 1656 
Q 797 1019 1065 703 
Q 1334 388 1700 388 
Q 2069 388 2326 689 
Q 2584 991 2584 1609 
Q 2584 2291 2321 2609 
Q 2059 2928 1675 2928 
Q 1300 2928 1048 2622 
Q 797 2316 797 1656 
z
" transform="scale(0.015625)"/>
        <path id="ArialMT-6e" d="M 422 0 
L 422 3319 
L 928 3319 
L 928 2847 
Q 1294 3394 1984 3394 
Q 2284 3394 2536 3286 
Q 2788 3178 2913 3003 
Q 3038 2828 3088 2588 
Q 3119 2431 3119 2041 
L 3119 0 
L 2556 0 
L 2556 2019 
Q 2556 2363 2490 2533 
Q 2425 2703 2258 2804 
Q 2091 2906 1866 2906 
Q 1506 2906 1245 2678 
Q 984 2450 984 1813 
L 984 0 
L 422 0 
z
" transform="scale(0.015625)"/>
        <path id="ArialMT-67" d="M 319 -275 
L 866 -356 
Q 900 -609 1056 -725 
Q 1266 -881 1628 -881 
Q 2019 -881 2231 -725 
Q 2444 -569 2519 -288 
Q 2563 -116 2559 434 
Q 2191 0 1641 0 
Q 956 0 581 494 
Q 206 988 206 1678 
Q 206 2153 378 2554 
Q 550 2956 876 3175 
Q 1203 3394 1644 3394 
Q 2231 3394 2613 2919 
L 2613 3319 
L 3131 3319 
L 3131 450 
Q 3131 -325 2973 -648 
Q 2816 -972 2473 -1159 
Q 2131 -1347 1631 -1347 
Q 1038 -1347 672 -1080 
Q 306 -813 319 -275 
z
M 784 1719 
Q 784 1066 1043 766 
Q 1303 466 1694 466 
Q 2081 466 2343 764 
Q 2606 1063 2606 1700 
Q 2606 2309 2336 2618 
Q 2066 2928 1684 2928 
Q 1309 2928 1046 2623 
Q 784 2319 784 1719 
z
" transform="scale(0.015625)"/>
        <path id="ArialMT-73" d="M 197 991 
L 753 1078 
Q 800 744 1014 566 
Q 1228 388 1613 388 
Q 2000 388 2187 545 
Q 2375 703 2375 916 
Q 2375 1106 2209 1216 
Q 2094 1291 1634 1406 
Q 1016 1563 777 1677 
Q 538 1791 414 1992 
Q 291 2194 291 2438 
Q 291 2659 392 2848 
Q 494 3038 669 3163 
Q 800 3259 1026 3326 
Q 1253 3394 1513 3394 
Q 1903 3394 2198 3281 
Q 2494 3169 2634 2976 
Q 2775 2784 2828 2463 
L 2278 2388 
Q 2241 2644 2061 2787 
Q 1881 2931 1553 2931 
Q 1166 2931 1000 2803 
Q 834 2675 834 2503 
Q 834 2394 903 2306 
Q 972 2216 1119 2156 
Q 1203 2125 1616 2013 
Q 2213 1853 2448 1751 
Q 2684 1650 2818 1456 
Q 2953 1263 2953 975 
Q 2953 694 2789 445 
Q 2625 197 2315 61 
Q 2006 -75 1616 -75 
Q 969 -75 630 194 
Q 291 463 197 991 
z
" transform="scale(0.015625)"/>
       </defs>
       <use xlink:href="#ArialMT-62"/>
       <use xlink:href="#ArialMT-75" x="55.615234"/>
       <use xlink:href="#ArialMT-69" x="111.230469"/>
       <use xlink:href="#ArialMT-6c" x="133.447266"/>
       <use xlink:href="#ArialMT-64" x="155.664062"/>
       <use xlink:href="#ArialMT-69" x="211.279297"/>
       <use xlink:href="#ArialMT-6e" x="233.496094"/>
       <use xlink:href="#ArialMT-67" x="289.111328"/>
       <use xlink:href="#ArialMT-73" x="344.726562"/>
      </g>
     </g>
    </g>
    <g id="xtick_3">
     <g id="text_3">
      <!-- animals -->
      <g style="fill: #262626" transform="translate(142.908955 285.67036) rotate(-30) scale(0.18 -0.18)">
       <defs>
        <path id="ArialMT-61" d="M 2588 409 
Q 2275 144 1986 34 
Q 1697 -75 1366 -75 
Q 819 -75 525 192 
Q 231 459 231 875 
Q 231 1119 342 1320 
Q 453 1522 633 1644 
Q 813 1766 1038 1828 
Q 1203 1872 1538 1913 
Q 2219 1994 2541 2106 
Q 2544 2222 2544 2253 
Q 2544 2597 2384 2738 
Q 2169 2928 1744 2928 
Q 1347 2928 1158 2789 
Q 969 2650 878 2297 
L 328 2372 
Q 403 2725 575 2942 
Q 747 3159 1072 3276 
Q 1397 3394 1825 3394 
Q 2250 3394 2515 3294 
Q 2781 3194 2906 3042 
Q 3031 2891 3081 2659 
Q 3109 2516 3109 2141 
L 3109 1391 
Q 3109 606 3145 398 
Q 3181 191 3288 0 
L 2700 0 
Q 2613 175 2588 409 
z
M 2541 1666 
Q 2234 1541 1622 1453 
Q 1275 1403 1131 1340 
Q 988 1278 909 1158 
Q 831 1038 831 891 
Q 831 666 1001 516 
Q 1172 366 1500 366 
Q 1825 366 2078 508 
Q 2331 650 2450 897 
Q 2541 1088 2541 1459 
L 2541 1666 
z
" transform="scale(0.015625)"/>
        <path id="ArialMT-6d" d="M 422 0 
L 422 3319 
L 925 3319 
L 925 2853 
Q 1081 3097 1340 3245 
Q 1600 3394 1931 3394 
Q 2300 3394 2536 3241 
Q 2772 3088 2869 2813 
Q 3263 3394 3894 3394 
Q 4388 3394 4653 3120 
Q 4919 2847 4919 2278 
L 4919 0 
L 4359 0 
L 4359 2091 
Q 4359 2428 4304 2576 
Q 4250 2725 4106 2815 
Q 3963 2906 3769 2906 
Q 3419 2906 3187 2673 
Q 2956 2441 2956 1928 
L 2956 0 
L 2394 0 
L 2394 2156 
Q 2394 2531 2256 2718 
Q 2119 2906 1806 2906 
Q 1569 2906 1367 2781 
Q 1166 2656 1075 2415 
Q 984 2175 984 1722 
L 984 0 
L 422 0 
z
" transform="scale(0.015625)"/>
       </defs>
       <use xlink:href="#ArialMT-61"/>
       <use xlink:href="#ArialMT-6e" x="55.615234"/>
       <use xlink:href="#ArialMT-69" x="111.230469"/>
       <use xlink:href="#ArialMT-6d" x="133.447266"/>
       <use xlink:href="#ArialMT-61" x="216.748047"/>
       <use xlink:href="#ArialMT-6c" x="272.363281"/>
       <use xlink:href="#ArialMT-73" x="294.580078"/>
      </g>
     </g>
    </g>
    <g id="xtick_4">
     <g id="text_4">
      <!-- artifacts -->
      <g style="fill: #262626" transform="translate(179.358376 286.166766) rotate(-30) scale(0.18 -0.18)">
       <defs>
        <path id="ArialMT-72" d="M 416 0 
L 416 3319 
L 922 3319 
L 922 2816 
Q 1116 3169 1280 3281 
Q 1444 3394 1641 3394 
Q 1925 3394 2219 3213 
L 2025 2691 
Q 1819 2813 1613 2813 
Q 1428 2813 1281 2702 
Q 1134 2591 1072 2394 
Q 978 2094 978 1738 
L 978 0 
L 416 0 
z
" transform="scale(0.015625)"/>
        <path id="ArialMT-74" d="M 1650 503 
L 1731 6 
Q 1494 -44 1306 -44 
Q 1000 -44 831 53 
Q 663 150 594 308 
Q 525 466 525 972 
L 525 2881 
L 113 2881 
L 113 3319 
L 525 3319 
L 525 4141 
L 1084 4478 
L 1084 3319 
L 1650 3319 
L 1650 2881 
L 1084 2881 
L 1084 941 
Q 1084 700 1114 631 
Q 1144 563 1211 522 
Q 1278 481 1403 481 
Q 1497 481 1650 503 
z
" transform="scale(0.015625)"/>
        <path id="ArialMT-66" d="M 556 0 
L 556 2881 
L 59 2881 
L 59 3319 
L 556 3319 
L 556 3672 
Q 556 4006 616 4169 
Q 697 4388 901 4523 
Q 1106 4659 1475 4659 
Q 1713 4659 2000 4603 
L 1916 4113 
Q 1741 4144 1584 4144 
Q 1328 4144 1222 4034 
Q 1116 3925 1116 3625 
L 1116 3319 
L 1763 3319 
L 1763 2881 
L 1116 2881 
L 1116 0 
L 556 0 
z
" transform="scale(0.015625)"/>
        <path id="ArialMT-63" d="M 2588 1216 
L 3141 1144 
Q 3050 572 2676 248 
Q 2303 -75 1759 -75 
Q 1078 -75 664 370 
Q 250 816 250 1647 
Q 250 2184 428 2587 
Q 606 2991 970 3192 
Q 1334 3394 1763 3394 
Q 2303 3394 2647 3120 
Q 2991 2847 3088 2344 
L 2541 2259 
Q 2463 2594 2264 2762 
Q 2066 2931 1784 2931 
Q 1359 2931 1093 2626 
Q 828 2322 828 1663 
Q 828 994 1084 691 
Q 1341 388 1753 388 
Q 2084 388 2306 591 
Q 2528 794 2588 1216 
z
" transform="scale(0.015625)"/>
       </defs>
       <use xlink:href="#ArialMT-61"/>
       <use xlink:href="#ArialMT-72" x="55.615234"/>
       <use xlink:href="#ArialMT-74" x="88.916016"/>
       <use xlink:href="#ArialMT-69" x="116.699219"/>
       <use xlink:href="#ArialMT-66" x="138.916016"/>
       <use xlink:href="#ArialMT-61" x="166.699219"/>
       <use xlink:href="#ArialMT-63" x="222.314453"/>
       <use xlink:href="#ArialMT-74" x="272.314453"/>
       <use xlink:href="#ArialMT-73" x="300.097656"/>
      </g>
     </g>
    </g>
    <g id="xtick_5">
     <g id="text_5">
      <!-- vehicles -->
      <g style="fill: #262626" transform="translate(215.365719 287.173641) rotate(-30) scale(0.18 -0.18)">
       <defs>
        <path id="ArialMT-76" d="M 1344 0 
L 81 3319 
L 675 3319 
L 1388 1331 
Q 1503 1009 1600 663 
Q 1675 925 1809 1294 
L 2547 3319 
L 3125 3319 
L 1869 0 
L 1344 0 
z
" transform="scale(0.015625)"/>
        <path id="ArialMT-68" d="M 422 0 
L 422 4581 
L 984 4581 
L 984 2938 
Q 1378 3394 1978 3394 
Q 2347 3394 2619 3248 
Q 2891 3103 3008 2847 
Q 3125 2591 3125 2103 
L 3125 0 
L 2563 0 
L 2563 2103 
Q 2563 2525 2380 2717 
Q 2197 2909 1863 2909 
Q 1613 2909 1392 2779 
Q 1172 2650 1078 2428 
Q 984 2206 984 1816 
L 984 0 
L 422 0 
z
" transform="scale(0.015625)"/>
       </defs>
       <use xlink:href="#ArialMT-76"/>
       <use xlink:href="#ArialMT-65" x="50"/>
       <use xlink:href="#ArialMT-68" x="105.615234"/>
       <use xlink:href="#ArialMT-69" x="161.230469"/>
       <use xlink:href="#ArialMT-63" x="183.447266"/>
       <use xlink:href="#ArialMT-6c" x="233.447266"/>
       <use xlink:href="#ArialMT-65" x="255.664062"/>
       <use xlink:href="#ArialMT-73" x="311.279297"/>
      </g>
     </g>
    </g>
    <g id="xtick_6">
     <g id="text_6">
      <!-- scenery -->
      <g style="fill: #262626" transform="translate(253.007897 285.988308) rotate(-30) scale(0.18 -0.18)">
       <defs>
        <path id="ArialMT-79" d="M 397 -1278 
L 334 -750 
Q 519 -800 656 -800 
Q 844 -800 956 -737 
Q 1069 -675 1141 -563 
Q 1194 -478 1313 -144 
Q 1328 -97 1363 -6 
L 103 3319 
L 709 3319 
L 1400 1397 
Q 1534 1031 1641 628 
Q 1738 1016 1872 1384 
L 2581 3319 
L 3144 3319 
L 1881 -56 
Q 1678 -603 1566 -809 
Q 1416 -1088 1222 -1217 
Q 1028 -1347 759 -1347 
Q 597 -1347 397 -1278 
z
" transform="scale(0.015625)"/>
       </defs>
       <use xlink:href="#ArialMT-73"/>
       <use xlink:href="#ArialMT-63" x="50"/>
       <use xlink:href="#ArialMT-65" x="100"/>
       <use xlink:href="#ArialMT-6e" x="155.615234"/>
       <use xlink:href="#ArialMT-65" x="211.230469"/>
       <use xlink:href="#ArialMT-72" x="266.845703"/>
       <use xlink:href="#ArialMT-79" x="300.146484"/>
      </g>
     </g>
    </g>
    <g id="xtick_7">
     <g id="text_7">
      <!-- plants -->
      <g style="fill: #262626" transform="translate(296.485036 278.674266) rotate(-30) scale(0.18 -0.18)">
       <use xlink:href="#ArialMT-70"/>
       <use xlink:href="#ArialMT-6c" x="55.615234"/>
       <use xlink:href="#ArialMT-61" x="77.832031"/>
       <use xlink:href="#ArialMT-6e" x="133.447266"/>
       <use xlink:href="#ArialMT-74" x="189.0625"/>
       <use xlink:href="#ArialMT-73" x="216.845703"/>
      </g>
     </g>
    </g>
    <g id="xtick_8">
     <g id="text_8">
      <!-- food -->
      <g style="fill: #262626" transform="translate(338.993252 272.174579) rotate(-30) scale(0.18 -0.18)">
       <use xlink:href="#ArialMT-66"/>
       <use xlink:href="#ArialMT-6f" x="27.783203"/>
       <use xlink:href="#ArialMT-6f" x="83.398438"/>
       <use xlink:href="#ArialMT-64" x="139.013672"/>
      </g>
     </g>
    </g>
    <g id="xtick_9">
     <g id="text_9">
      <!-- illustrations -->
      <g style="fill: #262626" transform="translate(352.056334 299.675204) rotate(-30) scale(0.18 -0.18)">
       <use xlink:href="#ArialMT-69"/>
       <use xlink:href="#ArialMT-6c" x="22.216797"/>
       <use xlink:href="#ArialMT-6c" x="44.433594"/>
       <use xlink:href="#ArialMT-75" x="66.650391"/>
       <use xlink:href="#ArialMT-73" x="122.265625"/>
       <use xlink:href="#ArialMT-74" x="172.265625"/>
       <use xlink:href="#ArialMT-72" x="200.048828"/>
       <use xlink:href="#ArialMT-61" x="233.349609"/>
       <use xlink:href="#ArialMT-74" x="288.964844"/>
       <use xlink:href="#ArialMT-69" x="316.748047"/>
       <use xlink:href="#ArialMT-6f" x="338.964844"/>
       <use xlink:href="#ArialMT-6e" x="394.580078"/>
       <use xlink:href="#ArialMT-73" x="450.195312"/>
      </g>
     </g>
    </g>
   </g>
   <g id="matplotlib.axis_2">
    <g id="ytick_1">
     <g id="text_10">
      <!-- 0 -->
      <g style="fill: #262626" transform="translate(55.730313 240.443841) scale(0.18 -0.18)">
       <defs>
        <path id="ArialMT-30" d="M 266 2259 
Q 266 3072 433 3567 
Q 600 4063 929 4331 
Q 1259 4600 1759 4600 
Q 2128 4600 2406 4451 
Q 2684 4303 2865 4023 
Q 3047 3744 3150 3342 
Q 3253 2941 3253 2259 
Q 3253 1453 3087 958 
Q 2922 463 2592 192 
Q 2263 -78 1759 -78 
Q 1097 -78 719 397 
Q 266 969 266 2259 
z
M 844 2259 
Q 844 1131 1108 757 
Q 1372 384 1759 384 
Q 2147 384 2411 759 
Q 2675 1134 2675 2259 
Q 2675 3391 2411 3762 
Q 2147 4134 1753 4134 
Q 1366 4134 1134 3806 
Q 844 3388 844 2259 
z
" transform="scale(0.015625)"/>
       </defs>
       <use xlink:href="#ArialMT-30"/>
      </g>
     </g>
    </g>
    <g id="ytick_2">
     <g id="text_11">
      <!-- 200 -->
      <g style="fill: #262626" transform="translate(35.710938 198.298732) scale(0.18 -0.18)">
       <defs>
        <path id="ArialMT-32" d="M 3222 541 
L 3222 0 
L 194 0 
Q 188 203 259 391 
Q 375 700 629 1000 
Q 884 1300 1366 1694 
Q 2113 2306 2375 2664 
Q 2638 3022 2638 3341 
Q 2638 3675 2398 3904 
Q 2159 4134 1775 4134 
Q 1369 4134 1125 3890 
Q 881 3647 878 3216 
L 300 3275 
Q 359 3922 746 4261 
Q 1134 4600 1788 4600 
Q 2447 4600 2831 4234 
Q 3216 3869 3216 3328 
Q 3216 3053 3103 2787 
Q 2991 2522 2730 2228 
Q 2469 1934 1863 1422 
Q 1356 997 1212 845 
Q 1069 694 975 541 
L 3222 541 
z
" transform="scale(0.015625)"/>
       </defs>
       <use xlink:href="#ArialMT-32"/>
       <use xlink:href="#ArialMT-30" x="55.615234"/>
       <use xlink:href="#ArialMT-30" x="111.230469"/>
      </g>
     </g>
    </g>
    <g id="ytick_3">
     <g id="text_12">
      <!-- 400 -->
      <g style="fill: #262626" transform="translate(35.710938 156.153624) scale(0.18 -0.18)">
       <defs>
        <path id="ArialMT-34" d="M 2069 0 
L 2069 1097 
L 81 1097 
L 81 1613 
L 2172 4581 
L 2631 4581 
L 2631 1613 
L 3250 1613 
L 3250 1097 
L 2631 1097 
L 2631 0 
L 2069 0 
z
M 2069 1613 
L 2069 3678 
L 634 1613 
L 2069 1613 
z
" transform="scale(0.015625)"/>
       </defs>
       <use xlink:href="#ArialMT-34"/>
       <use xlink:href="#ArialMT-30" x="55.615234"/>
       <use xlink:href="#ArialMT-30" x="111.230469"/>
      </g>
     </g>
    </g>
    <g id="ytick_4">
     <g id="text_13">
      <!-- 600 -->
      <g style="fill: #262626" transform="translate(35.710938 114.008515) scale(0.18 -0.18)">
       <defs>
        <path id="ArialMT-36" d="M 3184 3459 
L 2625 3416 
Q 2550 3747 2413 3897 
Q 2184 4138 1850 4138 
Q 1581 4138 1378 3988 
Q 1113 3794 959 3422 
Q 806 3050 800 2363 
Q 1003 2672 1297 2822 
Q 1591 2972 1913 2972 
Q 2475 2972 2870 2558 
Q 3266 2144 3266 1488 
Q 3266 1056 3080 686 
Q 2894 316 2569 119 
Q 2244 -78 1831 -78 
Q 1128 -78 684 439 
Q 241 956 241 2144 
Q 241 3472 731 4075 
Q 1159 4600 1884 4600 
Q 2425 4600 2770 4297 
Q 3116 3994 3184 3459 
z
M 888 1484 
Q 888 1194 1011 928 
Q 1134 663 1356 523 
Q 1578 384 1822 384 
Q 2178 384 2434 671 
Q 2691 959 2691 1453 
Q 2691 1928 2437 2201 
Q 2184 2475 1800 2475 
Q 1419 2475 1153 2201 
Q 888 1928 888 1484 
z
" transform="scale(0.015625)"/>
       </defs>
       <use xlink:href="#ArialMT-36"/>
       <use xlink:href="#ArialMT-30" x="55.615234"/>
       <use xlink:href="#ArialMT-30" x="111.230469"/>
      </g>
     </g>
    </g>
    <g id="ytick_5">
     <g id="text_14">
      <!-- 800 -->
      <g style="fill: #262626" transform="translate(35.710938 71.863406) scale(0.18 -0.18)">
       <defs>
        <path id="ArialMT-38" d="M 1131 2484 
Q 781 2613 612 2850 
Q 444 3088 444 3419 
Q 444 3919 803 4259 
Q 1163 4600 1759 4600 
Q 2359 4600 2725 4251 
Q 3091 3903 3091 3403 
Q 3091 3084 2923 2848 
Q 2756 2613 2416 2484 
Q 2838 2347 3058 2040 
Q 3278 1734 3278 1309 
Q 3278 722 2862 322 
Q 2447 -78 1769 -78 
Q 1091 -78 675 323 
Q 259 725 259 1325 
Q 259 1772 486 2073 
Q 713 2375 1131 2484 
z
M 1019 3438 
Q 1019 3113 1228 2906 
Q 1438 2700 1772 2700 
Q 2097 2700 2305 2904 
Q 2513 3109 2513 3406 
Q 2513 3716 2298 3927 
Q 2084 4138 1766 4138 
Q 1444 4138 1231 3931 
Q 1019 3725 1019 3438 
z
M 838 1322 
Q 838 1081 952 856 
Q 1066 631 1291 507 
Q 1516 384 1775 384 
Q 2178 384 2440 643 
Q 2703 903 2703 1303 
Q 2703 1709 2433 1975 
Q 2163 2241 1756 2241 
Q 1359 2241 1098 1978 
Q 838 1716 838 1322 
z
" transform="scale(0.015625)"/>
       </defs>
       <use xlink:href="#ArialMT-38"/>
       <use xlink:href="#ArialMT-30" x="55.615234"/>
       <use xlink:href="#ArialMT-30" x="111.230469"/>
      </g>
     </g>
    </g>
    <g id="text_15">
     <!-- Sample Count -->
     <g style="fill: #262626" transform="translate(27.735938 198.537155) rotate(-90) scale(0.2 -0.2)">
      <defs>
       <path id="ArialMT-53" d="M 288 1472 
L 859 1522 
Q 900 1178 1048 958 
Q 1197 738 1509 602 
Q 1822 466 2213 466 
Q 2559 466 2825 569 
Q 3091 672 3220 851 
Q 3350 1031 3350 1244 
Q 3350 1459 3225 1620 
Q 3100 1781 2813 1891 
Q 2628 1963 1997 2114 
Q 1366 2266 1113 2400 
Q 784 2572 623 2826 
Q 463 3081 463 3397 
Q 463 3744 659 4045 
Q 856 4347 1234 4503 
Q 1613 4659 2075 4659 
Q 2584 4659 2973 4495 
Q 3363 4331 3572 4012 
Q 3781 3694 3797 3291 
L 3216 3247 
Q 3169 3681 2898 3903 
Q 2628 4125 2100 4125 
Q 1550 4125 1298 3923 
Q 1047 3722 1047 3438 
Q 1047 3191 1225 3031 
Q 1400 2872 2139 2705 
Q 2878 2538 3153 2413 
Q 3553 2228 3743 1945 
Q 3934 1663 3934 1294 
Q 3934 928 3725 604 
Q 3516 281 3123 101 
Q 2731 -78 2241 -78 
Q 1619 -78 1198 103 
Q 778 284 539 648 
Q 300 1013 288 1472 
z
" transform="scale(0.015625)"/>
       <path id="ArialMT-20" transform="scale(0.015625)"/>
       <path id="ArialMT-43" d="M 3763 1606 
L 4369 1453 
Q 4178 706 3683 314 
Q 3188 -78 2472 -78 
Q 1731 -78 1267 223 
Q 803 525 561 1097 
Q 319 1669 319 2325 
Q 319 3041 592 3573 
Q 866 4106 1370 4382 
Q 1875 4659 2481 4659 
Q 3169 4659 3637 4309 
Q 4106 3959 4291 3325 
L 3694 3184 
Q 3534 3684 3231 3912 
Q 2928 4141 2469 4141 
Q 1941 4141 1586 3887 
Q 1231 3634 1087 3207 
Q 944 2781 944 2328 
Q 944 1744 1114 1308 
Q 1284 872 1643 656 
Q 2003 441 2422 441 
Q 2931 441 3284 734 
Q 3638 1028 3763 1606 
z
" transform="scale(0.015625)"/>
      </defs>
      <use xlink:href="#ArialMT-53"/>
      <use xlink:href="#ArialMT-61" x="66.699219"/>
      <use xlink:href="#ArialMT-6d" x="122.314453"/>
      <use xlink:href="#ArialMT-70" x="205.615234"/>
      <use xlink:href="#ArialMT-6c" x="261.230469"/>
      <use xlink:href="#ArialMT-65" x="283.447266"/>
      <use xlink:href="#ArialMT-20" x="339.0625"/>
      <use xlink:href="#ArialMT-43" x="366.845703"/>
      <use xlink:href="#ArialMT-6f" x="439.0625"/>
      <use xlink:href="#ArialMT-75" x="494.677734"/>
      <use xlink:href="#ArialMT-6e" x="550.292969"/>
      <use xlink:href="#ArialMT-74" x="605.908203"/>
     </g>
    </g>
   </g>
   <g id="patch_3">
    <path d="M 78.927932 234.00181 
L 108.431389 234.00181 
L 108.431389 57.413804 
L 78.927932 57.413804 
z
" clip-path="url(#p76b828b1f5)" style="fill: #5875a4; stroke: #ffffff; stroke-linejoin: miter"/>
   </g>
   <g id="patch_4">
    <path d="M 115.807254 234.00181 
L 145.310711 234.00181 
L 145.310711 188.906543 
L 115.807254 188.906543 
z
" clip-path="url(#p76b828b1f5)" style="fill: #5875a4; stroke: #ffffff; stroke-linejoin: miter"/>
   </g>
   <g id="patch_5">
    <path d="M 152.686575 234.00181 
L 182.190032 234.00181 
L 182.190032 146.129258 
L 152.686575 146.129258 
z
" clip-path="url(#p76b828b1f5)" style="fill: #5875a4; stroke: #ffffff; stroke-linejoin: miter"/>
   </g>
   <g id="patch_6">
    <path d="M 189.565897 234.00181 
L 219.069354 234.00181 
L 219.069354 91.340617 
L 189.565897 91.340617 
z
" clip-path="url(#p76b828b1f5)" style="fill: #5875a4; stroke: #ffffff; stroke-linejoin: miter"/>
   </g>
   <g id="patch_7">
    <path d="M 226.445218 234.00181 
L 255.948675 234.00181 
L 255.948675 199.442821 
L 226.445218 199.442821 
z
" clip-path="url(#p76b828b1f5)" style="fill: #5875a4; stroke: #ffffff; stroke-linejoin: miter"/>
   </g>
   <g id="patch_8">
    <path d="M 263.32454 234.00181 
L 292.827997 234.00181 
L 292.827997 175.420109 
L 263.32454 175.420109 
z
" clip-path="url(#p76b828b1f5)" style="fill: #5875a4; stroke: #ffffff; stroke-linejoin: miter"/>
   </g>
   <g id="patch_9">
    <path d="M 300.203861 234.00181 
L 329.707318 234.00181 
L 329.707318 207.02894 
L 300.203861 207.02894 
z
" clip-path="url(#p76b828b1f5)" style="fill: #5875a4; stroke: #ffffff; stroke-linejoin: miter"/>
   </g>
   <g id="patch_10">
    <path d="M 337.083183 234.00181 
L 366.58664 234.00181 
L 366.58664 165.094557 
L 337.083183 165.094557 
z
" clip-path="url(#p76b828b1f5)" style="fill: #5875a4; stroke: #ffffff; stroke-linejoin: miter"/>
   </g>
   <g id="patch_11">
    <path d="M 373.962504 234.00181 
L 403.465961 234.00181 
L 403.465961 201.550076 
L 373.962504 201.550076 
z
" clip-path="url(#p76b828b1f5)" style="fill: #5875a4; stroke: #ffffff; stroke-linejoin: miter"/>
   </g>
   <g id="line2d_1">
    <path clip-path="url(#p76b828b1f5)" style="fill: none; stroke: #424242; stroke-width: 2.7; stroke-linecap: round"/>
   </g>
   <g id="line2d_2">
    <path clip-path="url(#p76b828b1f5)" style="fill: none; stroke: #424242; stroke-width: 2.7; stroke-linecap: round"/>
   </g>
   <g id="line2d_3">
    <path clip-path="url(#p76b828b1f5)" style="fill: none; stroke: #424242; stroke-width: 2.7; stroke-linecap: round"/>
   </g>
   <g id="line2d_4">
    <path clip-path="url(#p76b828b1f5)" style="fill: none; stroke: #424242; stroke-width: 2.7; stroke-linecap: round"/>
   </g>
   <g id="line2d_5">
    <path clip-path="url(#p76b828b1f5)" style="fill: none; stroke: #424242; stroke-width: 2.7; stroke-linecap: round"/>
   </g>
   <g id="line2d_6">
    <path clip-path="url(#p76b828b1f5)" style="fill: none; stroke: #424242; stroke-width: 2.7; stroke-linecap: round"/>
   </g>
   <g id="line2d_7">
    <path clip-path="url(#p76b828b1f5)" style="fill: none; stroke: #424242; stroke-width: 2.7; stroke-linecap: round"/>
   </g>
   <g id="line2d_8">
    <path clip-path="url(#p76b828b1f5)" style="fill: none; stroke: #424242; stroke-width: 2.7; stroke-linecap: round"/>
   </g>
   <g id="line2d_9">
    <path clip-path="url(#p76b828b1f5)" style="fill: none; stroke: #424242; stroke-width: 2.7; stroke-linecap: round"/>
   </g>
   <g id="patch_12">
    <path d="M 75.24 234.00181 
L 75.24 36.34125 
" style="fill: none; stroke: #262626; stroke-width: 1.25; stroke-linejoin: miter; stroke-linecap: square"/>
   </g>
   <g id="patch_13">
    <path d="M 407.153893 234.00181 
L 407.153893 36.34125 
" style="fill: none; stroke: #262626; stroke-width: 1.25; stroke-linejoin: miter; stroke-linecap: square"/>
   </g>
   <g id="patch_14">
    <path d="M 75.24 234.00181 
L 407.153893 234.00181 
" style="fill: none; stroke: #262626; stroke-width: 1.25; stroke-linejoin: miter; stroke-linecap: square"/>
   </g>
   <g id="patch_15">
    <path d="M 75.24 36.34125 
L 407.153893 36.34125 
" style="fill: none; stroke: #262626; stroke-width: 1.25; stroke-linejoin: miter; stroke-linecap: square"/>
   </g>
   <g id="text_16">
    <!-- 838 -->
    <g style="fill: #262626" transform="translate(78.665129 57.067086) scale(0.18 -0.18)">
     <defs>
      <path id="ArialMT-33" d="M 269 1209 
L 831 1284 
Q 928 806 1161 595 
Q 1394 384 1728 384 
Q 2125 384 2398 659 
Q 2672 934 2672 1341 
Q 2672 1728 2419 1979 
Q 2166 2231 1775 2231 
Q 1616 2231 1378 2169 
L 1441 2663 
Q 1497 2656 1531 2656 
Q 1891 2656 2178 2843 
Q 2466 3031 2466 3422 
Q 2466 3731 2256 3934 
Q 2047 4138 1716 4138 
Q 1388 4138 1169 3931 
Q 950 3725 888 3313 
L 325 3413 
Q 428 3978 793 4289 
Q 1159 4600 1703 4600 
Q 2078 4600 2393 4439 
Q 2709 4278 2876 4000 
Q 3044 3722 3044 3409 
Q 3044 3113 2884 2869 
Q 2725 2625 2413 2481 
Q 2819 2388 3044 2092 
Q 3269 1797 3269 1353 
Q 3269 753 2831 336 
Q 2394 -81 1725 -81 
Q 1122 -81 723 278 
Q 325 638 269 1209 
z
" transform="scale(0.015625)"/>
     </defs>
     <use xlink:href="#ArialMT-38"/>
     <use xlink:href="#ArialMT-33" x="55.615234"/>
     <use xlink:href="#ArialMT-38" x="111.230469"/>
    </g>
   </g>
   <g id="text_17">
    <!-- 214 -->
    <g style="fill: #262626" transform="translate(115.544451 188.559825) scale(0.18 -0.18)">
     <defs>
      <path id="ArialMT-31" d="M 2384 0 
L 1822 0 
L 1822 3584 
Q 1619 3391 1289 3197 
Q 959 3003 697 2906 
L 697 3450 
Q 1169 3672 1522 3987 
Q 1875 4303 2022 4600 
L 2384 4600 
L 2384 0 
z
" transform="scale(0.015625)"/>
     </defs>
     <use xlink:href="#ArialMT-32"/>
     <use xlink:href="#ArialMT-31" x="55.615234"/>
     <use xlink:href="#ArialMT-34" x="111.230469"/>
    </g>
   </g>
   <g id="text_18">
    <!-- 417 -->
    <g style="fill: #262626" transform="translate(152.423772 145.782539) scale(0.18 -0.18)">
     <defs>
      <path id="ArialMT-37" d="M 303 3981 
L 303 4522 
L 3269 4522 
L 3269 4084 
Q 2831 3619 2401 2847 
Q 1972 2075 1738 1259 
Q 1569 684 1522 0 
L 944 0 
Q 953 541 1156 1306 
Q 1359 2072 1739 2783 
Q 2119 3494 2547 3981 
L 303 3981 
z
" transform="scale(0.015625)"/>
     </defs>
     <use xlink:href="#ArialMT-34"/>
     <use xlink:href="#ArialMT-31" x="55.615234"/>
     <use xlink:href="#ArialMT-37" x="111.230469"/>
    </g>
   </g>
   <g id="text_19">
    <!-- 677 -->
    <g style="fill: #262626" transform="translate(189.303094 90.993898) scale(0.18 -0.18)">
     <use xlink:href="#ArialMT-36"/>
     <use xlink:href="#ArialMT-37" x="55.615234"/>
     <use xlink:href="#ArialMT-37" x="111.230469"/>
    </g>
   </g>
   <g id="text_20">
    <!-- 164 -->
    <g style="fill: #262626" transform="translate(226.182415 199.096102) scale(0.18 -0.18)">
     <use xlink:href="#ArialMT-31"/>
     <use xlink:href="#ArialMT-36" x="55.615234"/>
     <use xlink:href="#ArialMT-34" x="111.230469"/>
    </g>
   </g>
   <g id="text_21">
    <!-- 278 -->
    <g style="fill: #262626" transform="translate(263.061737 175.07339) scale(0.18 -0.18)">
     <use xlink:href="#ArialMT-32"/>
     <use xlink:href="#ArialMT-37" x="55.615234"/>
     <use xlink:href="#ArialMT-38" x="111.230469"/>
    </g>
   </g>
   <g id="text_22">
    <!-- 128 -->
    <g style="fill: #262626" transform="translate(299.941058 206.682221) scale(0.18 -0.18)">
     <use xlink:href="#ArialMT-31"/>
     <use xlink:href="#ArialMT-32" x="55.615234"/>
     <use xlink:href="#ArialMT-38" x="111.230469"/>
    </g>
   </g>
   <g id="text_23">
    <!-- 327 -->
    <g style="fill: #262626" transform="translate(336.82038 164.747838) scale(0.18 -0.18)">
     <use xlink:href="#ArialMT-33"/>
     <use xlink:href="#ArialMT-32" x="55.615234"/>
     <use xlink:href="#ArialMT-37" x="111.230469"/>
    </g>
   </g>
   <g id="text_24">
    <!-- 154 -->
    <g style="fill: #262626" transform="translate(373.699701 201.203357) scale(0.18 -0.18)">
     <defs>
      <path id="ArialMT-35" d="M 266 1200 
L 856 1250 
Q 922 819 1161 601 
Q 1400 384 1738 384 
Q 2144 384 2425 690 
Q 2706 997 2706 1503 
Q 2706 1984 2436 2262 
Q 2166 2541 1728 2541 
Q 1456 2541 1237 2417 
Q 1019 2294 894 2097 
L 366 2166 
L 809 4519 
L 3088 4519 
L 3088 3981 
L 1259 3981 
L 1013 2750 
Q 1425 3038 1878 3038 
Q 2478 3038 2890 2622 
Q 3303 2206 3303 1553 
Q 3303 931 2941 478 
Q 2500 -78 1738 -78 
Q 1113 -78 717 272 
Q 322 622 266 1200 
z
" transform="scale(0.015625)"/>
     </defs>
     <use xlink:href="#ArialMT-31"/>
     <use xlink:href="#ArialMT-35" x="55.615234"/>
     <use xlink:href="#ArialMT-34" x="111.230469"/>
    </g>
   </g>
   <g id="text_25">
    <!-- Spatial Major Content -->
    <g style="fill: #262626" transform="translate(125.809447 30.34125) scale(0.24 -0.24)">
     <defs>
      <path id="ArialMT-4d" d="M 475 0 
L 475 4581 
L 1388 4581 
L 2472 1338 
Q 2622 884 2691 659 
Q 2769 909 2934 1394 
L 4031 4581 
L 4847 4581 
L 4847 0 
L 4263 0 
L 4263 3834 
L 2931 0 
L 2384 0 
L 1059 3900 
L 1059 0 
L 475 0 
z
" transform="scale(0.015625)"/>
      <path id="ArialMT-6a" d="M 419 3928 
L 419 4581 
L 981 4581 
L 981 3928 
L 419 3928 
z
M -294 -1288 
L -188 -809 
Q -19 -853 78 -853 
Q 250 -853 334 -739 
Q 419 -625 419 -169 
L 419 3319 
L 981 3319 
L 981 -181 
Q 981 -794 822 -1034 
Q 619 -1347 147 -1347 
Q -81 -1347 -294 -1288 
z
" transform="scale(0.015625)"/>
     </defs>
     <use xlink:href="#ArialMT-53"/>
     <use xlink:href="#ArialMT-70" x="66.699219"/>
     <use xlink:href="#ArialMT-61" x="122.314453"/>
     <use xlink:href="#ArialMT-74" x="177.929688"/>
     <use xlink:href="#ArialMT-69" x="205.712891"/>
     <use xlink:href="#ArialMT-61" x="227.929688"/>
     <use xlink:href="#ArialMT-6c" x="283.544922"/>
     <use xlink:href="#ArialMT-20" x="305.761719"/>
     <use xlink:href="#ArialMT-4d" x="333.544922"/>
     <use xlink:href="#ArialMT-61" x="416.845703"/>
     <use xlink:href="#ArialMT-6a" x="472.460938"/>
     <use xlink:href="#ArialMT-6f" x="494.677734"/>
     <use xlink:href="#ArialMT-72" x="550.292969"/>
     <use xlink:href="#ArialMT-20" x="583.59375"/>
     <use xlink:href="#ArialMT-43" x="611.376953"/>
     <use xlink:href="#ArialMT-6f" x="683.59375"/>
     <use xlink:href="#ArialMT-6e" x="739.208984"/>
     <use xlink:href="#ArialMT-74" x="794.824219"/>
     <use xlink:href="#ArialMT-65" x="822.607422"/>
     <use xlink:href="#ArialMT-6e" x="878.222656"/>
     <use xlink:href="#ArialMT-74" x="933.837891"/>
    </g>
   </g>
  </g>
  <g id="axes_2">
   <g id="patch_16">
    <path d="M 508.712859 234.00181 
L 840.626753 234.00181 
L 840.626753 36.34125 
L 508.712859 36.34125 
z
" style="fill: #ffffff"/>
   </g>
   <g id="matplotlib.axis_3">
    <g id="xtick_10">
     <g id="text_26">
      <!-- actions -->
      <g style="fill: #262626" transform="translate(524.998717 275.113956) rotate(-20) scale(0.18 -0.18)">
       <use xlink:href="#ArialMT-61"/>
       <use xlink:href="#ArialMT-63" x="55.615234"/>
       <use xlink:href="#ArialMT-74" x="105.615234"/>
       <use xlink:href="#ArialMT-69" x="133.398438"/>
       <use xlink:href="#ArialMT-6f" x="155.615234"/>
       <use xlink:href="#ArialMT-6e" x="211.230469"/>
       <use xlink:href="#ArialMT-73" x="266.845703"/>
      </g>
     </g>
    </g>
    <g id="xtick_11">
     <g id="text_27">
      <!-- kinetic motions -->
      <g style="fill: #262626" transform="translate(578.840699 296.323587) rotate(-20) scale(0.18 -0.18)">
       <defs>
        <path id="ArialMT-6b" d="M 425 0 
L 425 4581 
L 988 4581 
L 988 1969 
L 2319 3319 
L 3047 3319 
L 1778 2088 
L 3175 0 
L 2481 0 
L 1384 1697 
L 988 1316 
L 988 0 
L 425 0 
z
" transform="scale(0.015625)"/>
       </defs>
       <use xlink:href="#ArialMT-6b"/>
       <use xlink:href="#ArialMT-69" x="50"/>
       <use xlink:href="#ArialMT-6e" x="72.216797"/>
       <use xlink:href="#ArialMT-65" x="127.832031"/>
       <use xlink:href="#ArialMT-74" x="183.447266"/>
       <use xlink:href="#ArialMT-69" x="211.230469"/>
       <use xlink:href="#ArialMT-63" x="233.447266"/>
       <use xlink:href="#ArialMT-20" x="283.447266"/>
       <use xlink:href="#ArialMT-6d" x="311.230469"/>
       <use xlink:href="#ArialMT-6f" x="394.53125"/>
       <use xlink:href="#ArialMT-74" x="450.146484"/>
       <use xlink:href="#ArialMT-69" x="477.929688"/>
       <use xlink:href="#ArialMT-6f" x="500.146484"/>
       <use xlink:href="#ArialMT-6e" x="555.761719"/>
       <use xlink:href="#ArialMT-73" x="611.376953"/>
      </g>
     </g>
    </g>
    <g id="xtick_12">
     <g id="text_28">
      <!-- fluid motions -->
      <g style="fill: #262626" transform="translate(670.276406 290.167225) rotate(-20) scale(0.18 -0.18)">
       <use xlink:href="#ArialMT-66"/>
       <use xlink:href="#ArialMT-6c" x="27.783203"/>
       <use xlink:href="#ArialMT-75" x="50"/>
       <use xlink:href="#ArialMT-69" x="105.615234"/>
       <use xlink:href="#ArialMT-64" x="127.832031"/>
       <use xlink:href="#ArialMT-20" x="183.447266"/>
       <use xlink:href="#ArialMT-6d" x="211.230469"/>
       <use xlink:href="#ArialMT-6f" x="294.53125"/>
       <use xlink:href="#ArialMT-74" x="350.146484"/>
       <use xlink:href="#ArialMT-69" x="377.929688"/>
       <use xlink:href="#ArialMT-6f" x="400.146484"/>
       <use xlink:href="#ArialMT-6e" x="455.761719"/>
       <use xlink:href="#ArialMT-73" x="511.376953"/>
      </g>
     </g>
    </g>
    <g id="xtick_13">
     <g id="text_29">
      <!-- light change -->
      <g style="fill: #262626" transform="translate(755.086006 288.808015) rotate(-20) scale(0.18 -0.18)">
       <use xlink:href="#ArialMT-6c"/>
       <use xlink:href="#ArialMT-69" x="22.216797"/>
       <use xlink:href="#ArialMT-67" x="44.433594"/>
       <use xlink:href="#ArialMT-68" x="100.048828"/>
       <use xlink:href="#ArialMT-74" x="155.664062"/>
       <use xlink:href="#ArialMT-20" x="183.447266"/>
       <use xlink:href="#ArialMT-63" x="211.230469"/>
       <use xlink:href="#ArialMT-68" x="261.230469"/>
       <use xlink:href="#ArialMT-61" x="316.845703"/>
       <use xlink:href="#ArialMT-6e" x="372.460938"/>
       <use xlink:href="#ArialMT-67" x="428.076172"/>
       <use xlink:href="#ArialMT-65" x="483.691406"/>
      </g>
     </g>
    </g>
   </g>
   <g id="matplotlib.axis_4">
    <g id="ytick_6">
     <g id="text_30">
      <!-- 0 -->
      <g style="fill: #262626" transform="translate(489.203172 240.443841) scale(0.18 -0.18)">
       <use xlink:href="#ArialMT-30"/>
      </g>
     </g>
    </g>
    <g id="ytick_7">
     <g id="text_31">
      <!-- 200 -->
      <g style="fill: #262626" transform="translate(469.183797 199.731058) scale(0.18 -0.18)">
       <use xlink:href="#ArialMT-32"/>
       <use xlink:href="#ArialMT-30" x="55.615234"/>
       <use xlink:href="#ArialMT-30" x="111.230469"/>
      </g>
     </g>
    </g>
    <g id="ytick_8">
     <g id="text_32">
      <!-- 400 -->
      <g style="fill: #262626" transform="translate(469.183797 159.018276) scale(0.18 -0.18)">
       <use xlink:href="#ArialMT-34"/>
       <use xlink:href="#ArialMT-30" x="55.615234"/>
       <use xlink:href="#ArialMT-30" x="111.230469"/>
      </g>
     </g>
    </g>
    <g id="ytick_9">
     <g id="text_33">
      <!-- 600 -->
      <g style="fill: #262626" transform="translate(469.183797 118.305493) scale(0.18 -0.18)">
       <use xlink:href="#ArialMT-36"/>
       <use xlink:href="#ArialMT-30" x="55.615234"/>
       <use xlink:href="#ArialMT-30" x="111.230469"/>
      </g>
     </g>
    </g>
    <g id="ytick_10">
     <g id="text_34">
      <!-- 800 -->
      <g style="fill: #262626" transform="translate(469.183797 77.59271) scale(0.18 -0.18)">
       <use xlink:href="#ArialMT-38"/>
       <use xlink:href="#ArialMT-30" x="55.615234"/>
       <use xlink:href="#ArialMT-30" x="111.230469"/>
      </g>
     </g>
    </g>
    <g id="text_35">
     <!-- Sample Count -->
     <g style="fill: #262626" transform="translate(461.208797 198.537155) rotate(-90) scale(0.2 -0.2)">
      <use xlink:href="#ArialMT-53"/>
      <use xlink:href="#ArialMT-61" x="66.699219"/>
      <use xlink:href="#ArialMT-6d" x="122.314453"/>
      <use xlink:href="#ArialMT-70" x="205.615234"/>
      <use xlink:href="#ArialMT-6c" x="261.230469"/>
      <use xlink:href="#ArialMT-65" x="283.447266"/>
      <use xlink:href="#ArialMT-20" x="339.0625"/>
      <use xlink:href="#ArialMT-43" x="366.845703"/>
      <use xlink:href="#ArialMT-6f" x="439.0625"/>
      <use xlink:href="#ArialMT-75" x="494.677734"/>
      <use xlink:href="#ArialMT-6e" x="550.292969"/>
      <use xlink:href="#ArialMT-74" x="605.908203"/>
     </g>
    </g>
   </g>
   <g id="patch_17">
    <path d="M 517.010706 234.00181 
L 583.393485 234.00181 
L 583.393485 56.697641 
L 517.010706 56.697641 
z
" clip-path="url(#p04676c389c)" style="fill: #5f9e6e; stroke: #ffffff; stroke-linejoin: miter"/>
   </g>
   <g id="patch_18">
    <path d="M 599.98918 234.00181 
L 666.371959 234.00181 
L 666.371959 189.217749 
L 599.98918 189.217749 
z
" clip-path="url(#p04676c389c)" style="fill: #5f9e6e; stroke: #ffffff; stroke-linejoin: miter"/>
   </g>
   <g id="patch_19">
    <path d="M 682.967653 234.00181 
L 749.350432 234.00181 
L 749.350432 196.54605 
L 682.967653 196.54605 
z
" clip-path="url(#p04676c389c)" style="fill: #5f9e6e; stroke: #ffffff; stroke-linejoin: miter"/>
   </g>
   <g id="patch_20">
    <path d="M 765.946127 234.00181 
L 832.328905 234.00181 
L 832.328905 226.877073 
L 765.946127 226.877073 
z
" clip-path="url(#p04676c389c)" style="fill: #5f9e6e; stroke: #ffffff; stroke-linejoin: miter"/>
   </g>
   <g id="line2d_10">
    <path clip-path="url(#p04676c389c)" style="fill: none; stroke: #424242; stroke-width: 2.7; stroke-linecap: round"/>
   </g>
   <g id="line2d_11">
    <path clip-path="url(#p04676c389c)" style="fill: none; stroke: #424242; stroke-width: 2.7; stroke-linecap: round"/>
   </g>
   <g id="line2d_12">
    <path clip-path="url(#p04676c389c)" style="fill: none; stroke: #424242; stroke-width: 2.7; stroke-linecap: round"/>
   </g>
   <g id="line2d_13">
    <path clip-path="url(#p04676c389c)" style="fill: none; stroke: #424242; stroke-width: 2.7; stroke-linecap: round"/>
   </g>
   <g id="patch_21">
    <path d="M 508.712859 234.00181 
L 508.712859 36.34125 
" style="fill: none; stroke: #262626; stroke-width: 1.25; stroke-linejoin: miter; stroke-linecap: square"/>
   </g>
   <g id="patch_22">
    <path d="M 840.626753 234.00181 
L 840.626753 36.34125 
" style="fill: none; stroke: #262626; stroke-width: 1.25; stroke-linejoin: miter; stroke-linecap: square"/>
   </g>
   <g id="patch_23">
    <path d="M 508.712859 234.00181 
L 840.626753 234.00181 
" style="fill: none; stroke: #262626; stroke-width: 1.25; stroke-linejoin: miter; stroke-linecap: square"/>
   </g>
   <g id="patch_24">
    <path d="M 508.712859 36.34125 
L 840.626753 36.34125 
" style="fill: none; stroke: #262626; stroke-width: 1.25; stroke-linejoin: miter; stroke-linecap: square"/>
   </g>
   <g id="text_36">
    <!-- 871 -->
    <g style="fill: #262626" transform="translate(535.187565 56.350923) scale(0.18 -0.18)">
     <use xlink:href="#ArialMT-38"/>
     <use xlink:href="#ArialMT-37" x="55.615234"/>
     <use xlink:href="#ArialMT-31" x="111.230469"/>
    </g>
   </g>
   <g id="text_37">
    <!-- 220 -->
    <g style="fill: #262626" transform="translate(618.166038 188.87103) scale(0.18 -0.18)">
     <use xlink:href="#ArialMT-32"/>
     <use xlink:href="#ArialMT-32" x="55.615234"/>
     <use xlink:href="#ArialMT-30" x="111.230469"/>
    </g>
   </g>
   <g id="text_38">
    <!-- 184 -->
    <g style="fill: #262626" transform="translate(701.144511 196.199331) scale(0.18 -0.18)">
     <use xlink:href="#ArialMT-31"/>
     <use xlink:href="#ArialMT-38" x="55.615234"/>
     <use xlink:href="#ArialMT-34" x="111.230469"/>
    </g>
   </g>
   <g id="text_39">
    <!-- 35 -->
    <g style="fill: #262626" transform="translate(789.127828 226.530354) scale(0.18 -0.18)">
     <use xlink:href="#ArialMT-33"/>
     <use xlink:href="#ArialMT-35" x="55.615234"/>
    </g>
   </g>
   <g id="text_40">
    <!-- Temporal Major Content -->
    <g style="fill: #262626" transform="translate(546.627931 30.34125) scale(0.24 -0.24)">
     <defs>
      <path id="ArialMT-54" d="M 1659 0 
L 1659 4041 
L 150 4041 
L 150 4581 
L 3781 4581 
L 3781 4041 
L 2266 4041 
L 2266 0 
L 1659 0 
z
" transform="scale(0.015625)"/>
     </defs>
     <use xlink:href="#ArialMT-54"/>
     <use xlink:href="#ArialMT-65" x="49.958984"/>
     <use xlink:href="#ArialMT-6d" x="105.574219"/>
     <use xlink:href="#ArialMT-70" x="188.875"/>
     <use xlink:href="#ArialMT-6f" x="244.490234"/>
     <use xlink:href="#ArialMT-72" x="300.105469"/>
     <use xlink:href="#ArialMT-61" x="333.40625"/>
     <use xlink:href="#ArialMT-6c" x="389.021484"/>
     <use xlink:href="#ArialMT-20" x="411.238281"/>
     <use xlink:href="#ArialMT-4d" x="439.021484"/>
     <use xlink:href="#ArialMT-61" x="522.322266"/>
     <use xlink:href="#ArialMT-6a" x="577.9375"/>
     <use xlink:href="#ArialMT-6f" x="600.154297"/>
     <use xlink:href="#ArialMT-72" x="655.769531"/>
     <use xlink:href="#ArialMT-20" x="689.070312"/>
     <use xlink:href="#ArialMT-43" x="716.853516"/>
     <use xlink:href="#ArialMT-6f" x="789.070312"/>
     <use xlink:href="#ArialMT-6e" x="844.685547"/>
     <use xlink:href="#ArialMT-74" x="900.300781"/>
     <use xlink:href="#ArialMT-65" x="928.083984"/>
     <use xlink:href="#ArialMT-6e" x="983.699219"/>
     <use xlink:href="#ArialMT-74" x="1039.314453"/>
    </g>
   </g>
  </g>
  <g id="axes_3">
   <g id="patch_25">
    <path d="M 75.24 536.98 
L 407.153893 536.98 
L 407.153893 339.31944 
L 75.24 339.31944 
z
" style="fill: #ffffff"/>
   </g>
   <g id="matplotlib.axis_5">
    <g id="xtick_14">
     <g id="text_41">
      <!-- quantity -->
      <g style="fill: #262626" transform="translate(99.039295 559.364062) scale(0.18 -0.18)">
       <defs>
        <path id="ArialMT-71" d="M 2538 -1272 
L 2538 353 
Q 2406 169 2170 47 
Q 1934 -75 1669 -75 
Q 1078 -75 651 397 
Q 225 869 225 1691 
Q 225 2191 398 2587 
Q 572 2984 901 3189 
Q 1231 3394 1625 3394 
Q 2241 3394 2594 2875 
L 2594 3319 
L 3100 3319 
L 3100 -1272 
L 2538 -1272 
z
M 803 1669 
Q 803 1028 1072 708 
Q 1341 388 1716 388 
Q 2075 388 2334 692 
Q 2594 997 2594 1619 
Q 2594 2281 2320 2615 
Q 2047 2950 1678 2950 
Q 1313 2950 1058 2639 
Q 803 2328 803 1669 
z
" transform="scale(0.015625)"/>
       </defs>
       <use xlink:href="#ArialMT-71"/>
       <use xlink:href="#ArialMT-75" x="55.615234"/>
       <use xlink:href="#ArialMT-61" x="111.230469"/>
       <use xlink:href="#ArialMT-6e" x="166.845703"/>
       <use xlink:href="#ArialMT-74" x="222.460938"/>
       <use xlink:href="#ArialMT-69" x="250.244141"/>
       <use xlink:href="#ArialMT-74" x="272.460938"/>
       <use xlink:href="#ArialMT-79" x="300.244141"/>
      </g>
     </g>
    </g>
    <g id="xtick_15">
     <g id="text_42">
      <!-- camera view -->
      <g style="fill: #262626" transform="translate(190.684447 559.364062) scale(0.18 -0.18)">
       <defs>
        <path id="ArialMT-77" d="M 1034 0 
L 19 3319 
L 600 3319 
L 1128 1403 
L 1325 691 
Q 1338 744 1497 1375 
L 2025 3319 
L 2603 3319 
L 3100 1394 
L 3266 759 
L 3456 1400 
L 4025 3319 
L 4572 3319 
L 3534 0 
L 2950 0 
L 2422 1988 
L 2294 2553 
L 1622 0 
L 1034 0 
z
" transform="scale(0.015625)"/>
       </defs>
       <use xlink:href="#ArialMT-63"/>
       <use xlink:href="#ArialMT-61" x="50"/>
       <use xlink:href="#ArialMT-6d" x="105.615234"/>
       <use xlink:href="#ArialMT-65" x="188.916016"/>
       <use xlink:href="#ArialMT-72" x="244.53125"/>
       <use xlink:href="#ArialMT-61" x="277.832031"/>
       <use xlink:href="#ArialMT-20" x="333.447266"/>
       <use xlink:href="#ArialMT-76" x="361.230469"/>
       <use xlink:href="#ArialMT-69" x="411.230469"/>
       <use xlink:href="#ArialMT-65" x="433.447266"/>
       <use xlink:href="#ArialMT-77" x="489.0625"/>
      </g>
     </g>
    </g>
    <g id="xtick_16">
     <g id="text_43">
      <!-- color -->
      <g style="fill: #262626" transform="translate(332.328817 559.364062) scale(0.18 -0.18)">
       <use xlink:href="#ArialMT-63"/>
       <use xlink:href="#ArialMT-6f" x="50"/>
       <use xlink:href="#ArialMT-6c" x="105.615234"/>
       <use xlink:href="#ArialMT-6f" x="127.832031"/>
       <use xlink:href="#ArialMT-72" x="183.447266"/>
      </g>
     </g>
    </g>
   </g>
   <g id="matplotlib.axis_6">
    <g id="ytick_11">
     <g id="text_44">
      <!-- 0 -->
      <g style="fill: #262626" transform="translate(55.730313 543.422031) scale(0.18 -0.18)">
       <use xlink:href="#ArialMT-30"/>
      </g>
     </g>
    </g>
    <g id="ytick_12">
     <g id="text_45">
      <!-- 50 -->
      <g style="fill: #262626" transform="translate(45.720625 464.985301) scale(0.18 -0.18)">
       <use xlink:href="#ArialMT-35"/>
       <use xlink:href="#ArialMT-30" x="55.615234"/>
      </g>
     </g>
    </g>
    <g id="ytick_13">
     <g id="text_46">
      <!-- 100 -->
      <g style="fill: #262626" transform="translate(35.710938 386.548571) scale(0.18 -0.18)">
       <use xlink:href="#ArialMT-31"/>
       <use xlink:href="#ArialMT-30" x="55.615234"/>
       <use xlink:href="#ArialMT-30" x="111.230469"/>
      </g>
     </g>
    </g>
    <g id="text_47">
     <!-- Sample Count -->
     <g style="fill: #262626" transform="translate(27.735938 501.515345) rotate(-90) scale(0.2 -0.2)">
      <use xlink:href="#ArialMT-53"/>
      <use xlink:href="#ArialMT-61" x="66.699219"/>
      <use xlink:href="#ArialMT-6d" x="122.314453"/>
      <use xlink:href="#ArialMT-70" x="205.615234"/>
      <use xlink:href="#ArialMT-6c" x="261.230469"/>
      <use xlink:href="#ArialMT-65" x="283.447266"/>
      <use xlink:href="#ArialMT-20" x="339.0625"/>
      <use xlink:href="#ArialMT-43" x="366.845703"/>
      <use xlink:href="#ArialMT-6f" x="439.0625"/>
      <use xlink:href="#ArialMT-75" x="494.677734"/>
      <use xlink:href="#ArialMT-6e" x="550.292969"/>
      <use xlink:href="#ArialMT-74" x="605.908203"/>
     </g>
    </g>
   </g>
   <g id="patch_26">
    <path d="M 86.303796 536.98 
L 174.814168 536.98 
L 174.814168 370.694132 
L 86.303796 370.694132 
z
" clip-path="url(#p56a22deef3)" style="fill: #857aab; stroke: #ffffff; stroke-linejoin: miter"/>
   </g>
   <g id="patch_27">
    <path d="M 196.941761 536.98 
L 285.452133 536.98 
L 285.452133 402.068824 
L 196.941761 402.068824 
z
" clip-path="url(#p56a22deef3)" style="fill: #857aab; stroke: #ffffff; stroke-linejoin: miter"/>
   </g>
   <g id="patch_28">
    <path d="M 307.579725 536.98 
L 396.090097 536.98 
L 396.090097 378.537805 
L 307.579725 378.537805 
z
" clip-path="url(#p56a22deef3)" style="fill: #857aab; stroke: #ffffff; stroke-linejoin: miter"/>
   </g>
   <g id="line2d_14">
    <path clip-path="url(#p56a22deef3)" style="fill: none; stroke: #424242; stroke-width: 2.7; stroke-linecap: round"/>
   </g>
   <g id="line2d_15">
    <path clip-path="url(#p56a22deef3)" style="fill: none; stroke: #424242; stroke-width: 2.7; stroke-linecap: round"/>
   </g>
   <g id="line2d_16">
    <path clip-path="url(#p56a22deef3)" style="fill: none; stroke: #424242; stroke-width: 2.7; stroke-linecap: round"/>
   </g>
   <g id="patch_29">
    <path d="M 75.24 536.98 
L 75.24 339.31944 
" style="fill: none; stroke: #262626; stroke-width: 1.25; stroke-linejoin: miter; stroke-linecap: square"/>
   </g>
   <g id="patch_30">
    <path d="M 407.153893 536.98 
L 407.153893 339.31944 
" style="fill: none; stroke: #262626; stroke-width: 1.25; stroke-linejoin: miter; stroke-linecap: square"/>
   </g>
   <g id="patch_31">
    <path d="M 75.24 536.98 
L 407.153893 536.98 
" style="fill: none; stroke: #262626; stroke-width: 1.25; stroke-linejoin: miter; stroke-linecap: square"/>
   </g>
   <g id="patch_32">
    <path d="M 75.24 339.31944 
L 407.153893 339.31944 
" style="fill: none; stroke: #262626; stroke-width: 1.25; stroke-linejoin: miter; stroke-linecap: square"/>
   </g>
   <g id="text_48">
    <!-- 106 -->
    <g style="fill: #262626" transform="translate(115.544451 370.347414) scale(0.18 -0.18)">
     <use xlink:href="#ArialMT-31"/>
     <use xlink:href="#ArialMT-30" x="55.615234"/>
     <use xlink:href="#ArialMT-36" x="111.230469"/>
    </g>
   </g>
   <g id="text_49">
    <!-- 86 -->
    <g style="fill: #262626" transform="translate(231.187259 401.722106) scale(0.18 -0.18)">
     <use xlink:href="#ArialMT-38"/>
     <use xlink:href="#ArialMT-36" x="55.615234"/>
    </g>
   </g>
   <g id="text_50">
    <!-- 101 -->
    <g style="fill: #262626" transform="translate(336.82038 378.191087) scale(0.18 -0.18)">
     <use xlink:href="#ArialMT-31"/>
     <use xlink:href="#ArialMT-30" x="55.615234"/>
     <use xlink:href="#ArialMT-31" x="111.230469"/>
    </g>
   </g>
   <g id="text_51">
    <!-- Spatial Attribute Control -->
    <g style="fill: #262626" transform="translate(115.131322 333.31944) scale(0.24 -0.24)">
     <defs>
      <path id="ArialMT-41" d="M -9 0 
L 1750 4581 
L 2403 4581 
L 4278 0 
L 3588 0 
L 3053 1388 
L 1138 1388 
L 634 0 
L -9 0 
z
M 1313 1881 
L 2866 1881 
L 2388 3150 
Q 2169 3728 2063 4100 
Q 1975 3659 1816 3225 
L 1313 1881 
z
" transform="scale(0.015625)"/>
     </defs>
     <use xlink:href="#ArialMT-53"/>
     <use xlink:href="#ArialMT-70" x="66.699219"/>
     <use xlink:href="#ArialMT-61" x="122.314453"/>
     <use xlink:href="#ArialMT-74" x="177.929688"/>
     <use xlink:href="#ArialMT-69" x="205.712891"/>
     <use xlink:href="#ArialMT-61" x="227.929688"/>
     <use xlink:href="#ArialMT-6c" x="283.544922"/>
     <use xlink:href="#ArialMT-20" x="305.761719"/>
     <use xlink:href="#ArialMT-41" x="328.044922"/>
     <use xlink:href="#ArialMT-74" x="394.744141"/>
     <use xlink:href="#ArialMT-74" x="422.527344"/>
     <use xlink:href="#ArialMT-72" x="450.310547"/>
     <use xlink:href="#ArialMT-69" x="483.611328"/>
     <use xlink:href="#ArialMT-62" x="505.828125"/>
     <use xlink:href="#ArialMT-75" x="561.443359"/>
     <use xlink:href="#ArialMT-74" x="617.058594"/>
     <use xlink:href="#ArialMT-65" x="644.841797"/>
     <use xlink:href="#ArialMT-20" x="700.457031"/>
     <use xlink:href="#ArialMT-43" x="728.240234"/>
     <use xlink:href="#ArialMT-6f" x="800.457031"/>
     <use xlink:href="#ArialMT-6e" x="856.072266"/>
     <use xlink:href="#ArialMT-74" x="911.6875"/>
     <use xlink:href="#ArialMT-72" x="939.470703"/>
     <use xlink:href="#ArialMT-6f" x="972.771484"/>
     <use xlink:href="#ArialMT-6c" x="1028.386719"/>
    </g>
   </g>
  </g>
  <g id="axes_4">
   <g id="patch_33">
    <path d="M 508.712859 536.98 
L 840.626753 536.98 
L 840.626753 339.31944 
L 508.712859 339.31944 
z
" style="fill: #ffffff"/>
   </g>
   <g id="matplotlib.axis_7">
    <g id="xtick_17">
     <g id="text_52">
      <!-- motion direction -->
      <g style="fill: #262626" transform="translate(500.504498 559.364062) scale(0.18 -0.18)">
       <use xlink:href="#ArialMT-6d"/>
       <use xlink:href="#ArialMT-6f" x="83.300781"/>
       <use xlink:href="#ArialMT-74" x="138.916016"/>
       <use xlink:href="#ArialMT-69" x="166.699219"/>
       <use xlink:href="#ArialMT-6f" x="188.916016"/>
       <use xlink:href="#ArialMT-6e" x="244.53125"/>
       <use xlink:href="#ArialMT-20" x="300.146484"/>
       <use xlink:href="#ArialMT-64" x="327.929688"/>
       <use xlink:href="#ArialMT-69" x="383.544922"/>
       <use xlink:href="#ArialMT-72" x="405.761719"/>
       <use xlink:href="#ArialMT-65" x="439.0625"/>
       <use xlink:href="#ArialMT-63" x="494.677734"/>
       <use xlink:href="#ArialMT-74" x="544.677734"/>
       <use xlink:href="#ArialMT-69" x="572.460938"/>
       <use xlink:href="#ArialMT-6f" x="594.677734"/>
       <use xlink:href="#ArialMT-6e" x="650.292969"/>
      </g>
     </g>
    </g>
    <g id="xtick_18">
     <g id="text_53">
      <!-- speed -->
      <g style="fill: #262626" transform="translate(650.150431 559.364062) scale(0.18 -0.18)">
       <use xlink:href="#ArialMT-73"/>
       <use xlink:href="#ArialMT-70" x="50"/>
       <use xlink:href="#ArialMT-65" x="105.615234"/>
       <use xlink:href="#ArialMT-65" x="161.230469"/>
       <use xlink:href="#ArialMT-64" x="216.845703"/>
      </g>
     </g>
    </g>
    <g id="xtick_19">
     <g id="text_54">
      <!-- event order -->
      <g style="fill: #262626" transform="translate(739.784645 559.364062) scale(0.18 -0.18)">
       <use xlink:href="#ArialMT-65"/>
       <use xlink:href="#ArialMT-76" x="55.615234"/>
       <use xlink:href="#ArialMT-65" x="105.615234"/>
       <use xlink:href="#ArialMT-6e" x="161.230469"/>
       <use xlink:href="#ArialMT-74" x="216.845703"/>
       <use xlink:href="#ArialMT-20" x="244.628906"/>
       <use xlink:href="#ArialMT-6f" x="272.412109"/>
       <use xlink:href="#ArialMT-72" x="328.027344"/>
       <use xlink:href="#ArialMT-64" x="361.328125"/>
       <use xlink:href="#ArialMT-65" x="416.943359"/>
       <use xlink:href="#ArialMT-72" x="472.558594"/>
      </g>
     </g>
    </g>
   </g>
   <g id="matplotlib.axis_8">
    <g id="ytick_14">
     <g id="text_55">
      <!-- 0 -->
      <g style="fill: #262626" transform="translate(489.203172 543.422031) scale(0.18 -0.18)">
       <use xlink:href="#ArialMT-30"/>
      </g>
     </g>
    </g>
    <g id="ytick_15">
     <g id="text_56">
      <!-- 20 -->
      <g style="fill: #262626" transform="translate(479.193484 503.083142) scale(0.18 -0.18)">
       <use xlink:href="#ArialMT-32"/>
       <use xlink:href="#ArialMT-30" x="55.615234"/>
      </g>
     </g>
    </g>
    <g id="ytick_16">
     <g id="text_57">
      <!-- 40 -->
      <g style="fill: #262626" transform="translate(479.193484 462.744252) scale(0.18 -0.18)">
       <use xlink:href="#ArialMT-34"/>
       <use xlink:href="#ArialMT-30" x="55.615234"/>
      </g>
     </g>
    </g>
    <g id="ytick_17">
     <g id="text_58">
      <!-- 60 -->
      <g style="fill: #262626" transform="translate(479.193484 422.405362) scale(0.18 -0.18)">
       <use xlink:href="#ArialMT-36"/>
       <use xlink:href="#ArialMT-30" x="55.615234"/>
      </g>
     </g>
    </g>
    <g id="ytick_18">
     <g id="text_59">
      <!-- 80 -->
      <g style="fill: #262626" transform="translate(479.193484 382.066472) scale(0.18 -0.18)">
       <use xlink:href="#ArialMT-38"/>
       <use xlink:href="#ArialMT-30" x="55.615234"/>
      </g>
     </g>
    </g>
    <g id="text_60">
     <!-- Sample Count -->
     <g style="fill: #262626" transform="translate(471.218484 501.515345) rotate(-90) scale(0.2 -0.2)">
      <use xlink:href="#ArialMT-53"/>
      <use xlink:href="#ArialMT-61" x="66.699219"/>
      <use xlink:href="#ArialMT-6d" x="122.314453"/>
      <use xlink:href="#ArialMT-70" x="205.615234"/>
      <use xlink:href="#ArialMT-6c" x="261.230469"/>
      <use xlink:href="#ArialMT-65" x="283.447266"/>
      <use xlink:href="#ArialMT-20" x="339.0625"/>
      <use xlink:href="#ArialMT-43" x="366.845703"/>
      <use xlink:href="#ArialMT-6f" x="439.0625"/>
      <use xlink:href="#ArialMT-75" x="494.677734"/>
      <use xlink:href="#ArialMT-6e" x="550.292969"/>
      <use xlink:href="#ArialMT-74" x="605.908203"/>
     </g>
    </g>
   </g>
   <g id="patch_34">
    <path d="M 519.776656 536.98 
L 608.287027 536.98 
L 608.287027 379.65833 
L 519.776656 379.65833 
z
" clip-path="url(#p65596b41cb)" style="fill: #71aec0; stroke: #ffffff; stroke-linejoin: miter"/>
   </g>
   <g id="patch_35">
    <path d="M 630.41462 536.98 
L 718.924992 536.98 
L 718.924992 498.658055 
L 630.41462 498.658055 
z
" clip-path="url(#p65596b41cb)" style="fill: #71aec0; stroke: #ffffff; stroke-linejoin: miter"/>
   </g>
   <g id="patch_36">
    <path d="M 741.052585 536.98 
L 829.562956 536.98 
L 829.562956 415.963331 
L 741.052585 415.963331 
z
" clip-path="url(#p65596b41cb)" style="fill: #71aec0; stroke: #ffffff; stroke-linejoin: miter"/>
   </g>
   <g id="line2d_17">
    <path clip-path="url(#p65596b41cb)" style="fill: none; stroke: #424242; stroke-width: 2.7; stroke-linecap: round"/>
   </g>
   <g id="line2d_18">
    <path clip-path="url(#p65596b41cb)" style="fill: none; stroke: #424242; stroke-width: 2.7; stroke-linecap: round"/>
   </g>
   <g id="line2d_19">
    <path clip-path="url(#p65596b41cb)" style="fill: none; stroke: #424242; stroke-width: 2.7; stroke-linecap: round"/>
   </g>
   <g id="patch_37">
    <path d="M 508.712859 536.98 
L 508.712859 339.31944 
" style="fill: none; stroke: #262626; stroke-width: 1.25; stroke-linejoin: miter; stroke-linecap: square"/>
   </g>
   <g id="patch_38">
    <path d="M 840.626753 536.98 
L 840.626753 339.31944 
" style="fill: none; stroke: #262626; stroke-width: 1.25; stroke-linejoin: miter; stroke-linecap: square"/>
   </g>
   <g id="patch_39">
    <path d="M 508.712859 536.98 
L 840.626753 536.98 
" style="fill: none; stroke: #262626; stroke-width: 1.25; stroke-linejoin: miter; stroke-linecap: square"/>
   </g>
   <g id="patch_40">
    <path d="M 508.712859 339.31944 
L 840.626753 339.31944 
" style="fill: none; stroke: #262626; stroke-width: 1.25; stroke-linejoin: miter; stroke-linecap: square"/>
   </g>
   <g id="text_61">
    <!-- 78 -->
    <g style="fill: #262626" transform="translate(554.022154 379.311611) scale(0.18 -0.18)">
     <use xlink:href="#ArialMT-37"/>
     <use xlink:href="#ArialMT-38" x="55.615234"/>
    </g>
   </g>
   <g id="text_62">
    <!-- 19 -->
    <g style="fill: #262626" transform="translate(664.660118 498.311336) scale(0.18 -0.18)">
     <defs>
      <path id="ArialMT-39" d="M 350 1059 
L 891 1109 
Q 959 728 1153 556 
Q 1347 384 1650 384 
Q 1909 384 2104 503 
Q 2300 622 2425 820 
Q 2550 1019 2634 1356 
Q 2719 1694 2719 2044 
Q 2719 2081 2716 2156 
Q 2547 1888 2255 1720 
Q 1963 1553 1622 1553 
Q 1053 1553 659 1965 
Q 266 2378 266 3053 
Q 266 3750 677 4175 
Q 1088 4600 1706 4600 
Q 2153 4600 2523 4359 
Q 2894 4119 3086 3673 
Q 3278 3228 3278 2384 
Q 3278 1506 3087 986 
Q 2897 466 2520 194 
Q 2144 -78 1638 -78 
Q 1100 -78 759 220 
Q 419 519 350 1059 
z
M 2653 3081 
Q 2653 3566 2395 3850 
Q 2138 4134 1775 4134 
Q 1400 4134 1122 3828 
Q 844 3522 844 3034 
Q 844 2597 1108 2323 
Q 1372 2050 1759 2050 
Q 2150 2050 2401 2323 
Q 2653 2597 2653 3081 
z
" transform="scale(0.015625)"/>
     </defs>
     <use xlink:href="#ArialMT-31"/>
     <use xlink:href="#ArialMT-39" x="55.615234"/>
    </g>
   </g>
   <g id="text_63">
    <!-- 60 -->
    <g style="fill: #262626" transform="translate(775.298083 415.616612) scale(0.18 -0.18)">
     <use xlink:href="#ArialMT-36"/>
     <use xlink:href="#ArialMT-30" x="55.615234"/>
    </g>
   </g>
   <g id="text_64">
    <!-- Temporal Attribute Control -->
    <g style="fill: #262626" transform="translate(535.949806 333.31944) scale(0.24 -0.24)">
     <use xlink:href="#ArialMT-54"/>
     <use xlink:href="#ArialMT-65" x="49.958984"/>
     <use xlink:href="#ArialMT-6d" x="105.574219"/>
     <use xlink:href="#ArialMT-70" x="188.875"/>
     <use xlink:href="#ArialMT-6f" x="244.490234"/>
     <use xlink:href="#ArialMT-72" x="300.105469"/>
     <use xlink:href="#ArialMT-61" x="333.40625"/>
     <use xlink:href="#ArialMT-6c" x="389.021484"/>
     <use xlink:href="#ArialMT-20" x="411.238281"/>
     <use xlink:href="#ArialMT-41" x="433.521484"/>
     <use xlink:href="#ArialMT-74" x="500.220703"/>
     <use xlink:href="#ArialMT-74" x="528.003906"/>
     <use xlink:href="#ArialMT-72" x="555.787109"/>
     <use xlink:href="#ArialMT-69" x="589.087891"/>
     <use xlink:href="#ArialMT-62" x="611.304688"/>
     <use xlink:href="#ArialMT-75" x="666.919922"/>
     <use xlink:href="#ArialMT-74" x="722.535156"/>
     <use xlink:href="#ArialMT-65" x="750.318359"/>
     <use xlink:href="#ArialMT-20" x="805.933594"/>
     <use xlink:href="#ArialMT-43" x="833.716797"/>
     <use xlink:href="#ArialMT-6f" x="905.933594"/>
     <use xlink:href="#ArialMT-6e" x="961.548828"/>
     <use xlink:href="#ArialMT-74" x="1017.164062"/>
     <use xlink:href="#ArialMT-72" x="1044.947266"/>
     <use xlink:href="#ArialMT-6f" x="1078.248047"/>
     <use xlink:href="#ArialMT-6c" x="1133.863281"/>
    </g>
   </g>
  </g>
 </g>
 <defs>
  <clipPath id="p76b828b1f5">
   <rect x="75.24" y="36.34125" width="331.913893" height="197.66056"/>
  </clipPath>
  <clipPath id="p04676c389c">
   <rect x="508.712859" y="36.34125" width="331.913893" height="197.66056"/>
  </clipPath>
  <clipPath id="p56a22deef3">
   <rect x="75.24" y="339.31944" width="331.913893" height="197.66056"/>
  </clipPath>
  <clipPath id="p65596b41cb">
   <rect x="508.712859" y="339.31944" width="331.913893" height="197.66056"/>
  </clipPath>
 </defs>
</svg>
